<svg xmlns="http://www.w3.org/2000/svg" xmlns:xlink="http://www.w3.org/1999/xlink" viewBox="0,0,256,256" width="48px" height="48px" fill-rule="nonzero"><defs><linearGradient x1="14.073" y1="8.468" x2="14.073" y2="36.033" gradientUnits="userSpaceOnUse" id="color-1"><stop offset="0" stop-color="#7dffce"></stop><stop offset="1" stop-color="#50c08d"></stop></linearGradient><linearGradient x1="34.249" y1="48.404" x2="34.249" y2="19.425" gradientUnits="userSpaceOnUse" id="color-2"><stop offset="0" stop-color="#7dffce"></stop><stop offset="1" stop-color="#50c08d"></stop></linearGradient></defs><g fill="#242837" fill-rule="nonzero" stroke="none" stroke-width="1" stroke-linecap="butt" stroke-linejoin="miter" stroke-miterlimit="10" stroke-dasharray="" stroke-dashoffset="0" font-family="none" font-weight="none" font-size="none" text-anchor="none" style="mix-blend-mode: normal"><path d="M64,256c-35.34622,0 -64,-28.65378 -64,-64v-128c0,-35.34622 28.65378,-64 64,-64h128c35.34622,0 64,28.65378 64,64v128c0,35.34622 -28.65378,64 -64,64z" id="shape"></path></g><g fill="none" fill-rule="nonzero" stroke="none" stroke-width="1" stroke-linecap="butt" stroke-linejoin="miter" stroke-miterlimit="10" stroke-dasharray="" stroke-dashoffset="0" font-family="none" font-weight="none" font-size="none" text-anchor="none" style="mix-blend-mode: normal"><g transform="scale(5.33333,5.33333)"><g id="Слой_1"><path d="M24.2,30v-23.7c0,-1.8 -2.3,-2.6 -3.4,-1.2l-16.3,20.8c-1.3,1.7 -0.1,4.1 2,4.1z" fill="url(#color-1)"></path><path d="M24,18.4v23.7c0,1.8 2.4,2.6 3.5,1.2l16.4,-20.7c1.3,-1.7 0.1,-4.1 -2.1,-4.1h-17.8z" fill="url(#color-2)"></path></g></g></g></svg>